<svg xmlns="http://www.w3.org/2000/svg" viewBox="0 0 212.08 221.84">
  <g data-name="Layer 2">
    <g data-name="Layer 1">
      <path d="M7.06 61.18c2.74-.4 5 .63 7.38.92a24 24 0 0 1 3.66.73c1.49.42 2.26 0 2.69-1.54.73-2.6 1.69-5.13 2.76-8.32 1 3 1.94 5.4 2.67 7.85.47 1.58 1 2.25 2.91 1.74 3.23-.89 6.57-1.43 10.51-2.25l-6.2 8.15c-2.37 3.12-2.37 3.12.14 6.21l6.27 7.71c-4-.71-7.42-1.21-10.82-2-1.65-.38-2.16.2-2.57 1.64A58.74 58.74 0 0 1 23.19 91c-1-3-2.13-6-3-9-.41-1.41-1.09-1.65-2.38-1.37-3.29.73-6.59 1.38-10.47 2.18 2.46-3.07 4.5-5.82 6.77-8.36 1.41-1.59 1.57-2.7.06-4.38-2.47-2.78-4.63-5.76-7.11-8.89Zm35.18-38.6c2.75-.4 5 .63 7.39.92a24 24 0 0 1 3.66.73c1.49.42 2.26 0 2.69-1.54.73-2.6 1.69-5.13 2.76-8.32 1 3 1.94 5.4 2.66 7.85.48 1.59 1.05 2.26 2.91 1.74 3.24-.89 6.58-1.43 10.52-2.25l-6.2 8.16c-2.37 3.11-2.37 3.11.14 6.2L75 43.78c-4-.71-7.42-1.2-10.82-2-1.66-.38-2.16.2-2.57 1.64a59.83 59.83 0 0 1-3.27 8.93c-1-3-2.14-6-3-9-.4-1.42-1.08-1.66-2.34-1.35-3.29.72-6.59 1.37-10.47 2.17 2.46-3.07 4.5-5.82 6.77-8.36 1.41-1.58 1.57-2.7.06-4.38-2.47-2.74-4.63-5.72-7.12-8.85Zm169.84 38.6c-2.74-.4-5 .63-7.38.92a24 24 0 0 0-3.66.73c-1.49.42-2.26 0-2.69-1.54-.73-2.6-1.69-5.13-2.76-8.32-1 3-1.94 5.4-2.66 7.85-.48 1.58-1.05 2.25-2.92 1.74-3.23-.89-6.57-1.43-10.51-2.25l6.2 8.15c2.37 3.12 2.37 3.12-.14 6.21l-6.27 7.71c4-.71 7.42-1.21 10.82-2 1.66-.38 2.16.2 2.57 1.64A59.83 59.83 0 0 0 196 91c1-3 2.14-6 3-9 .41-1.41 1.09-1.65 2.38-1.37 3.29.73 6.59 1.38 10.47 2.18-2.46-3.07-4.5-5.82-6.77-8.36-1.41-1.59-1.57-2.7-.06-4.38 2.42-2.78 4.58-5.76 7.06-8.89Zm-35.45-38.6c-2.74-.4-5 .63-7.38.92a24 24 0 0 0-3.66.73c-1.49.42-2.26 0-2.7-1.54-.72-2.6-1.68-5.13-2.75-8.32-1 3-1.94 5.4-2.67 7.85-.47 1.59-1 2.26-2.91 1.74-3.24-.89-6.57-1.43-10.51-2.25l6.2 8.16c2.37 3.11 2.37 3.11-.14 6.2l-6.27 7.71c4-.71 7.42-1.2 10.82-2 1.65-.38 2.16.2 2.57 1.64a57.69 57.69 0 0 0 3.27 8.93c1-3 2.13-6 3-9 .41-1.41 1.09-1.65 2.38-1.36 3.29.72 6.59 1.37 10.47 2.17-2.46-3.07-4.5-5.82-6.77-8.36-1.41-1.58-1.57-2.7-.07-4.38 2.49-2.73 4.63-5.71 7.12-8.84Z" class="cls-1"/>
      <path d="M176.36 84.58c-1.05-1-2.19-1.77-3.29-2.65l-4.57-3.68v-.27a8.38 8.38 0 0 1 1.2-.21c.79 0 1.58.11 2.36 0 1.08-.1 1.23-.4 1-1.54-1-.17-2.08-.31-3.12-.52a17.26 17.26 0 0 0-6.12-.31 4.71 4.71 0 0 1-3-.56 19.07 19.07 0 0 1-10-11.19 6.62 6.62 0 0 0-4.45-4.65 2.67 2.67 0 0 1-1.53-1.09c-1.37-2.59-3.22-4.95-3.5-8.07-.18-2-1.07-4-1-6.14a2.86 2.86 0 0 0-.34-1.36c-2.44-4.88-6.1-8.26-11.57-9.44a31.37 31.37 0 0 1-4-1.15c-.87-.32-1.63-.93-2.49-1.29-.68-.29-.76-.67-.43-1.22s.63-.92.92-1.4c.61-1 .5-1.41-.51-2-.51-.29-1-.54-1.53-.86a1 1 0 0 1-.34-1.48 3.78 3.78 0 0 0 .79-1.84c-.08-3.08.56-6.22-.75-9.21a6.75 6.75 0 0 1-.44-2.15 20.4 20.4 0 0 0-2.63-8 4 4 0 0 0-4.13-2.2 11 11 0 0 1-2.63-.08 3.89 3.89 0 0 0-3.56.98c-.83.69-1.53 1.54-2.34 2.25a7.06 7.06 0 0 0-2.36 5.4 12.28 12.28 0 0 1-1.31 5.35 5 5 0 0 0-.26 3.76c.18.62.33 1.25.57 1.85a3 3 0 0 1-.94 3.7l-.38.38c-2 2.08-1.84 1.6-.53 3.95a10.93 10.93 0 0 1 1 2.34c.29 1 .09 1.24-.94 1.38-.64.08-1.29.14-1.93.17a9.55 9.55 0 0 0-4.58 1.37 40.78 40.78 0 0 1-4.5 2.21 5.23 5.23 0 0 0-2.58 2.16 15.58 15.58 0 0 0-1.22 2.54 33.74 33.74 0 0 1-5.18 8.75 11.51 11.51 0 0 0-2 3.89 35.54 35.54 0 0 1-1.56 4.29 2.42 2.42 0 0 1-1 1.19c-2.16 1-3.84 2.95-6.32 3.39A1.61 1.61 0 0 0 67 62.94a4.65 4.65 0 0 1-1.64 3.12c-2 1.77-4 3.56-5.93 5.39a6.29 6.29 0 0 1-5.34 1.73 17 17 0 0 0-4.78-.06 40.43 40.43 0 0 1-4.27.23c0 1.19.16 1.5 1.22 1.68a10.52 10.52 0 0 0 1.59.06h1.82a7.9 7.9 0 0 1-.67 1.39 10.81 10.81 0 0 1-1.31 1.31c-1.77 1.58-3.59 3.12-5.32 4.75a4.74 4.74 0 0 0-.71 1.52l.35.34a14.39 14.39 0 0 0 2.06-1c.82-.55 1.52-1.28 2.31-1.88a8.48 8.48 0 0 1 1.32-.66c-.37 1.3-1.6 2-1.25 3.54l2.84-1.53.19 1.7a7.35 7.35 0 0 0 1.23-.2 1.87 1.87 0 0 1 1.9.21 1 1 0 0 0 .93 0c1.82-1.23 3.76-2.31 5-4.25a3.39 3.39 0 0 1 1.13-1.1c2.15-1.21 4.28-2.45 6.5-3.51A3.56 3.56 0 0 1 70.93 77a20.09 20.09 0 0 1 1.59 2.64c.29.53.64.84 1.25.73 1.29-.22 2.57-.5 3.86-.69A8.41 8.41 0 0 0 83.45 76a6.08 6.08 0 0 1 4-2.76 2 2 0 0 0 1.7-2 9.43 9.43 0 0 0-.53-3c-.44-1.3-.51-1.32 1.09-2 .1 1.16.22 2.23.28 3.31a5.8 5.8 0 0 0 2.33 4.89 3.25 3.25 0 0 1 .73.75 1.47 1.47 0 0 1-.25 2.24c-.6.52-1.23 1-1.8 1.56a5.17 5.17 0 0 0-2 3.44 4.91 4.91 0 0 1-1.29 3 6.72 6.72 0 0 0-1.48 4 23.2 23.2 0 0 1-.61 4q-1 4.32-2.15 8.6a95 95 0 0 1-2.78 9.45c-1.15 3-2.68 5.86-3.62 8.95a19.3 19.3 0 0 0-.51 2.28 8.79 8.79 0 0 1-.22 1.81 9 9 0 0 1-3.06 3.91 4.14 4.14 0 0 0-1.49 4.81 9 9 0 0 1 .39 5.09 11.09 11.09 0 0 0-.06 3.81 4.18 4.18 0 0 1-.44 3.43c-.09.15-.18.29-.26.44h5.31v4.59H88.6v7.15h37.67v-3.65h7a15.12 15.12 0 0 0-1.55-5.37 7.08 7.08 0 0 1-.43-5 17.45 17.45 0 0 0-.08-8.79 3.34 3.34 0 0 1 0-1.8 21.77 21.77 0 0 1 1.3-3.17c.49-1 .78-1.08 1.89-.77.68.2 1.4.28 2.29.45v-3.73c.06-2.64.14-5.27.21-7.91a14 14 0 0 0 0-2.89 59.55 59.55 0 0 1-.61-7.43c-.37-5.76-1.08-11.5-1.65-17.25a20.25 20.25 0 0 1-.27-3 9.11 9.11 0 0 0-1.75-5.78c-.44-.66-.88-1.32-1.26-2a9 9 0 0 1-1-2.15 1.77 1.77 0 0 1 .46-1.3 1.08 1.08 0 0 1 1-.21 9.42 9.42 0 0 1 3.87 2.66c1.12 1.4 2.25 2.79 3.42 4.15a1.33 1.33 0 0 0 2.08.31 7.19 7.19 0 0 1 3-1.06 2.35 2.35 0 0 0 1.41-.85c1-1.38 1.81-2.85 2.77-4.39a1.63 1.63 0 0 1 .49.1l8.68 4.25h.07c2.06 1.75 4.15 3.46 6.16 5.26 1.52 1.36 1.86 1.44 3.55.3a.47.47 0 0 1 .17 0c2.45 2 2.45 1.18 3.14-.15l2.34.63c.24-1.29.14-1.6-.74-2.22-.55-.39-1.16-.69-1.7-1.08a2.69 2.69 0 0 1-.53-.74l.22-.21a8.39 8.39 0 0 1 1.2.49c1.25.77 2.45 1.62 3.71 2.36a9.21 9.21 0 0 0 1.66.54l.28-.32a5.13 5.13 0 0 0-.71-1.45Zm-62.94 112.3c-53-16.14-80.64-5.75-80.77-5.71a113.63 113.63 0 0 0 27.38 19 113 113 0 0 0 11.64 5l.21.07c.88.32 1.77.62 2.66.92l.58.19c.77.25 1.55.49 2.33.72l.73.22 2.26.64.76.21 2.38.59.63.16c2 .47 4.07.89 6.14 1.26l.57.09c.82.14 1.64.28 2.46.4l1 .14c.69.1 1.37.19 2.06.27l1.16.14 2 .2 1.21.1c.65.06 1.31.1 2 .15l1.19.07 2.14.1h1c1.06 0 2.11.05 3.17.05 1.21 0 2.41 0 3.61-.06h1l2.76-.14.92-.06c1.18-.09 2.35-.19 3.52-.31l.58-.07q1.49-.15 3-.36l1-.14c1-.14 1.94-.29 2.9-.45l.6-.1c1.16-.21 2.31-.43 3.46-.67l.72-.16c.94-.2 1.86-.41 2.79-.63l.84-.21q3.44-.85 6.78-1.92l.69-.22c.95-.31 1.89-.63 2.83-1l.56-.2q3.38-1.2 6.63-2.63l.54-.23c1-.46 2.07-.93 3.1-1.41l.09-.05c1.12-.53 2.24-1.09 3.34-1.66h.08c1.05-.54 2.08-1.1 3.1-1.67l.29-.17q3.12-1.76 6.11-3.7c-6.15 2.25-21.91 4.45-58.73-6.76Z" class="cls-1"/>
      <path d="M207.85 160v-5h-7v-22.86l-22.62 11v15.08h-6.88V162h-11.1v-3.71h-4.94v-11.1l-4.67-5.84-5.2 5.84-5.2-5.84-4.15 5.84v11.07h-5.46V162h-28l-18.13-.14.08-6.87H72.44v-4.59h-7.93v-28.91h-3.17v-19.28h-5.29V88.52h-2.91v13.69h-2.91V88.52h-3.17v13.69h-2.12v48.19h-5.29V162h-10v-7h-6.93v-13.73h-9v-5.35H0a112.69 112.69 0 0 0 11.73 29c.65 1.12 1.31 2.23 2 3.33 1.4 2.24 2.87 4.41 4.42 6.54.43-.12 29.38-8.05 97.26 8.24 48.54 11.65 53.55 7 80.27.24a113.81 113.81 0 0 0 14.48-20.65l.33-.6V160Z" class="cls-1"/>
    </g>
  </g>
</svg>
